<svg
      xmlns="http://www.w3.org/2000/svg"
      version="1.0"
      width="100pt"
      height="100pt"
      viewBox="0 0 75.000000 71.000000"
      preserveAspectRatio="xMidYMid meet"
    >
      <g
        transform="translate(0.000000,72.000000) scale(0.100000,-0.100000)"
        fill="#FFFFFF"
        stroke="none"
      >
        <path d="M410 673 c-41 -15 -112 -116 -93 -133 4 -4 32 -11 61 -15 l52 -7 0 81 c0 45 -1 81 -2 80 -2 0 -10 -3 -18 -6z" />
        <path d="M450 599 l0 -82 50 7 c84 11 84 11 53 69 -24 43 -72 87 -95 87 -5 0 -8 -37 -8 -81z" />
        <path d="M289 632 c-24 -16 -50 -36 -57 -44 -10 -13 -8 -17 18 -28 17 -7 32 -11 33 -9 31 47 64 109 59 109 -5 0 -28 -13 -53 -28z" />
        <path d="M568 606 c15 -30 30 -55 34 -55 4 -1 19 4 33 9 24 9 25 12 14 27 -17 20 -89 73 -100 73 -4 0 4 -24 19 -54z" />
        
       
        
        <path d="M184 515 c-20 -49 -18 -58 12 -38 26 16 27 16 46 -6 17 -22 17 -26 3 -47 -13 -20 -13 -24 -1 -24 14 0 18 11 30 90 6 34 4 37 -27 48 -46 17 -46 16 -63 -23z" />
        <path d="M632 537 c-21 -9 -23 -16 -18 -46 3 -20 6 -48 6 -63 0 -27 2 -28 55 -28 l56 0 -7 38 c-9 51 -36 107 -54 109 -8 1 -26 -3 -38 -10z" />
        <path d="M296 495 c-3 -11 -6 -37 -6 -57 l0 -38 70 0 70 0 0 48 0 49 -64 9 c-61 9 -65 9 -70 -11z" />
        <path d="M512 506 l-63 -10 3 -45 3 -46 74 -3 74 -3 -6 52 c-4 29 -10 55 -14 58 -5 4 -36 2 -71 -3z" />
        <path d="M128 414 c-43 -25 -78 -52 -78 -60 0 -8 3 -14 6 -14 17 0 174 97 174 108 0 20 -21 13 -102 -34z" />
        <path d="M167 373 c-17 -16 -3 -23 43 -23 38 0 50 4 50 15 0 11 -11 15 -43 15 -24 0 -47 -3 -50 -7z" />
        <path d="M290 365 c0 -10 10 -15 34 -15 39 0 61 -21 53 -51 -4 -15 -2 -19 10 -15 8 3 21 6 29 6 10 0 14 13 14 45 l0 45 -70 0 c-56 0 -70 -3 -70 -15z" />
        <path d="M450 336 l0 -44 43 -7 c23 -3 54 -8 68 -11 24 -5 27 -1 33 33 12 75 14 73 -69 73 l-75 0 0 -44z" />
        <path d="M620 358 c0 -13 -3 -39 -6 -58 -5 -33 -3 -37 31 -53 l36 -17 19 42 c10 24 21 58 25 76 l7 32 -56 0 c-51 0 -56 -2 -56 -22z" />
       
        <path d="M150 315 c0 -12 18 -15 100 -15 82 0 100 3 100 15 0 12 -18 15 -100 15 -82 0 -100 -3 -100 -15z" />
        <path d="M100 255 c0 -12 18 -15 100 -15 82 0 100 3 100 15 0 12 -18 15 -100 15 -82 0 -100 -3 -100 -15z" />
        <path d="M331 251 c-11 -7 -5 -10 20 -13 29 -2 34 -7 37 -31 3 -20 -2 -29 -18 -35 -22 -8 -22 -9 10 -35 17 -15 36 -27 41 -27 5 0 9 34 9 75 l0 75 -42 0 c-24 0 -49 -4 -57 -9z" />
        <path d="M450 185 c0 -58 3 -75 14 -75 24 0 73 48 95 93 l21 42 -22 7 c-13 3 -42 6 -65 7 l-43 1 0 -75z" />
        
        
       
       
        <path d="M579 197 c-12 -23 -29 -50 -38 -61 -16 -18 -15 -18 19 -1 45 22 100 64 100 75 0 4 -14 13 -30 19 -29 10 -31 8 -51 -32z" />
       
        
        <path d="M67 200 c-64 -50 -31 -149 49 -150 49 0 84 33 84 81 0 76 -75 115 -133 69z m77 -26 c9 -8 16 -20 16 -25 0 -12 -17 -12 -22 0 -1 5 -9 11 -17 13 -10 2 -15 -7 -16 -29 -1 -36 18 -44 34 -16 5 10 13 14 17 10 13 -12 -11 -42 -36 -45 -26 -4 -60 28 -56 53 3 18 41 55 56 55 5 0 16 -7 24 -16z" />
        <path d="M200 205 c18 -22 170 -22 170 0 0 12 -17 15 -91 15 -80 0 -90 -2 -79 -15z" />
        <path d="M222 158 c3 -8 26 -14 56 -16 42 -2 52 0 52 12 0 13 -12 16 -56 16 -40 0 -55 -4 -52 -12z" />
        <path d="M227 113 c-17 -16 -3 -23 48 -23 42 0 55 3 55 15 0 11 -12 15 -48 15 -27 0 -52 -3 -55 -7z" />
      </g>
    </svg>